<svg aria-hidden="true" style="position: absolute; width: 0; height: 0; overflow: hidden;" version="1.1" xmlns="http://www.w3.org/2000/svg" xmlns:xlink="http://www.w3.org/1999/xlink">
<defs>
<symbol id="icon-checkmark" viewBox="0 0 32 32">
<path d="M6 12l-6 6 12 12 20-20-6-6-14 14z"></path>
</symbol>
<symbol id="icon-office" viewBox="0 0 32 32">
<path d="M0 32h16v-32h-16v32zM10 4h4v4h-4v-4zM10 12h4v4h-4v-4zM10 20h4v4h-4v-4zM2 4h4v4h-4v-4zM2 12h4v4h-4v-4zM2 20h4v4h-4v-4zM18 10h14v2h-14zM18 32h4v-8h6v8h4v-18h-14z"></path>
</symbol>
<symbol id="icon-location" viewBox="0 0 32 32">
<path d="M16 0c-5.523 0-10 4.477-10 10 0 10 10 22 10 22s10-12 10-22c0-5.523-4.477-10-10-10zM16 16.125c-3.383 0-6.125-2.742-6.125-6.125s2.742-6.125 6.125-6.125 6.125 2.742 6.125 6.125-2.742 6.125-6.125 6.125zM12.125 10c0-2.14 1.735-3.875 3.875-3.875s3.875 1.735 3.875 3.875c0 2.14-1.735 3.875-3.875 3.875s-3.875-1.735-3.875-3.875z"></path>
</symbol>
<symbol id="icon-house" viewBox="0 0 35 32">
<path fill="#fff" style="fill: var(--color1, #fff)" d="M25.629 13.122v-13.122h-14.959v7.244h-11.286v24.757h11.286v0.017h24.407v-18.896l-9.448 0.001zM6.824 30.951v-5.953h-2.544v5.953h-3.846v-22.658h10.236v22.658h-3.846zM34.027 30.968h-13.297v-10.585h-4.549v10.585h-4.461v-29.918h12.859v13.122h9.448v16.796zM13.080 3.587h2.187v4.865h-2.187v-4.865zM17.271 3.587h2.187v4.865h-2.187v-4.865zM21.303 3.587h2.188v4.865h-2.188v-4.865zM13.080 11.057h2.187v5.39h-2.187v-5.39zM17.271 11.057h2.187v5.39h-2.187v-5.39zM21.303 11.057h2.188v5.39h-2.188v-5.39zM27.383 21.53h-2.187v-4.996h2.187v4.996zM27.383 29.525h-2.187v-5.127h2.187v5.127zM31.975 21.53h-2.187v-4.996h2.187v4.996zM31.975 29.525h-2.187v-5.127h2.187v5.127zM2.163 10.038h2.187v4.995h-2.187v-4.995zM2.163 17.902h2.187v5.127h-2.187v-5.127zM6.755 10.038h2.187v4.995h-2.187v-4.995zM6.755 17.902h2.187v5.127h-2.187v-5.127z"></path>
</symbol>
</defs>
</svg>
